<?xml version="1.0" encoding="utf-8"?>
<!-- Generator: Adobe Illustrator 24.1.2, SVG Export Plug-In . SVG Version: 6.00 Build 0)  -->
<svg version="1.1" id="Layer_1" xmlns="http://www.w3.org/2000/svg" xmlns:xlink="http://www.w3.org/1999/xlink" x="0px" y="0px"
	 viewBox="0 0 512 512" style="enable-background:new 0 0 512 512;" xml:space="preserve">
<style type="text/css">
	.st0{fill:#292A75;}
	.st1{fill:#DB2790;stroke:#000000;stroke-miterlimit:10;}
	.st2{fill:#FFFFFF;}
</style>
<rect y="144" class="st0" width="512" height="368"/>
<rect class="st1" width="512" height="144"/>
<g>
	<path class="st2" d="M163.2,31.3c-22.5,0-40.7,18.2-40.7,40.7c0,15.4,8.5,28.8,21.1,35.7V74.9h-7.8l2.9-13.1h5h13.1v13.1v37.2
		c2.1,0.3,4.3,0.5,6.5,0.5s4.4-0.2,6.5-0.5V74.9h-7.8l2.9-13.1h5h13.1v13.1v32.7c12.6-6.9,21.1-20.3,21.1-35.7
		C203.9,49.5,185.7,31.3,163.2,31.3z"/>
	<g>
		<path class="st2" d="M242.2,85.2v4h-17.3c0.1,4,2.9,5.5,7.2,5.5c3.6,0,6.4-1.1,9.1-2.1v7.4c-2.3,1.1-6.3,2.2-10.8,2.2
			c-8.5,0-15.7-4.7-15.7-16c0-9,5-15.8,14.3-15.8C237.9,70.4,242.2,76.5,242.2,85.2z M224.9,82.8h8.2c0-2.6-1.1-4.9-3.8-4.9
			C226.2,77.9,225,80,224.9,82.8z"/>
		<path class="st2" d="M257.7,58.5v34.6c0,1.4,1.3,1.6,2.7,1.6c0.4,0,1.3-0.1,2.4-0.3v6.7c-2.5,0.8-4.9,1.1-6.9,1.1
			c-5.7,0-8.1-2.8-8.1-6.5V58.5H257.7z"/>
		<path class="st2" d="M292.6,85.2v4h-17.3c0.1,4,2.9,5.5,7.2,5.5c3.6,0,6.4-1.1,9.1-2.1v7.4c-2.3,1.1-6.3,2.2-10.8,2.2
			c-8.5,0-15.7-4.7-15.7-16c0-9,5-15.8,14.3-15.8C288.3,70.4,292.6,76.5,292.6,85.2z M275.3,82.8h8.2c0-2.6-1.1-4.9-3.8-4.9
			C276.6,77.9,275.4,80,275.3,82.8z"/>
		<path class="st2" d="M294.6,71.2h9.9l6.3,19.7h0.2l6.2-19.7h9.4l-10.4,30.2H305L294.6,71.2z"/>
		<path class="st2" d="M354.8,85.2v4h-17.3c0.1,4,2.9,5.5,7.2,5.5c3.6,0,6.4-1.1,9.1-2.1v7.4c-2.3,1.1-6.3,2.2-10.8,2.2
			c-8.5,0-15.7-4.7-15.7-16c0-9,5-15.8,14.3-15.8C350.6,70.4,354.8,76.5,354.8,85.2z M337.5,82.8h8.2c0-2.6-1.1-4.9-3.8-4.9
			C338.9,77.9,337.6,80,337.5,82.8z"/>
		<path class="st2" d="M379.5,82.3c0-2.9-1.2-4.1-4.2-4.1c-1.9,0-3.7,0.6-4.9,1.6v21.6h-10V71.2h9.2v3.6h0.1
			c2.5-2.6,5.8-4.3,10.3-4.3c6.8,0,9.5,3.9,9.5,11.8v19.1h-10V82.3z"/>
	</g>
</g>
<circle class="st2" cx="275.3" cy="258.7" r="62.8"/>
<path class="st2" d="M275.3,353c-42,0-125.7,21.1-125.7,62.8v31.4H401v-31.4C401,374.1,317.2,353,275.3,353z"/>
<g>
	<path class="st2" d="M106.1,320.7c0-3.6,0.5-6.8,1.5-9.3c1-2.6,2.6-4.9,4.9-7.1c3.4-3.3,6.5-6.1,9.4-8.6c2.9-2.4,5.3-4.7,7.4-6.8
		c2.1-2.1,3.7-4.1,4.8-6c1.2-1.9,1.7-3.9,1.7-5.9c0-4-1.2-7.1-3.7-9.4c-2.5-2.2-5.6-3.4-9.4-3.4c-5.7,0-10.1,1.6-13,4.7
		c-3,3.2-4.7,7-5,11.5l-28.1-1.8c1.3-12.9,6.1-22.7,14.2-29.5c8.2-6.8,18.6-10.1,31.4-10.1c5.6,0,10.9,0.8,15.8,2.3
		c4.9,1.5,9.3,3.8,13,6.8c3.8,3,6.8,6.8,8.9,11.3c2.2,4.5,3.3,9.7,3.3,15.5c0,3.5-0.4,6.7-1.1,9.6c-0.7,2.9-2,5.7-3.7,8.5
		c-1.8,2.8-4.1,5.6-6.9,8.5c-2.9,2.9-6.5,6-10.9,9.4c-2.8,2.2-4.7,4.3-5.7,6.4c-1,2.1-1.5,4.1-1.5,6.2v5.3h-27.4V320.7z M103,355.7
		c0-2.3,0.4-4.5,1.3-6.6c0.9-2.1,2-3.9,3.6-5.4c1.5-1.5,3.3-2.7,5.4-3.6c2.1-0.9,4.3-1.3,6.6-1.3c2.3,0,4.5,0.4,6.6,1.3
		c2.1,0.9,3.9,2,5.4,3.6c1.5,1.5,2.7,3.3,3.6,5.4c0.8,2.1,1.3,4.3,1.3,6.6c0,2.3-0.4,4.5-1.3,6.6c-0.9,2.1-2,3.9-3.6,5.4
		c-1.5,1.5-3.3,2.7-5.4,3.6c-2.1,0.9-4.3,1.3-6.6,1.3c-2.3,0-4.5-0.4-6.6-1.3c-2.1-0.9-3.9-2-5.4-3.6c-1.5-1.5-2.7-3.3-3.6-5.4
		C103.4,360.2,103,358,103,355.7z"/>
</g>
</svg>
